<svg width="23" height="31" viewBox="0 0 23 31" fill="none" xmlns="http://www.w3.org/2000/svg">
<path d="M13.4167 8.23438V0H1.4375C0.640885 0 0 0.647852 0 1.45312V29.5469C0 30.3521 0.640885 31 1.4375 31H21.5625C22.3591 31 23 30.3521 23 29.5469V9.6875H14.8542C14.0635 9.6875 13.4167 9.03359 13.4167 8.23438ZM17.3207 21.3131H13.4167V26.1569C13.4167 26.6921 12.9878 27.1256 12.4583 27.1256H10.5417C10.0122 27.1256 9.58333 26.6921 9.58333 26.1569V21.3131H5.67932C4.82401 21.3131 4.39695 20.2663 5.0043 19.6565L10.7795 13.8622C11.1778 13.462 11.821 13.462 12.2193 13.8622L17.9945 19.6565C18.6024 20.2663 18.176 21.3131 17.3207 21.3131ZM22.5807 6.35742L16.7169 0.423828C16.4474 0.151367 16.082 0 15.6987 0H15.3333V7.75H23V7.38066C23 6.99922 22.8503 6.62988 22.5807 6.35742Z" fill="black"/>
</svg>
